<svg id="visual" viewBox="0 0 900 600" width="900" height="600" xmlns="http://www.w3.org/2000/svg" xmlns:xlink="http://www.w3.org/1999/xlink" version="1.1"><rect x="0" y="0" width="900" height="600" fill="#002233"></rect><path d="M0 387L21.5 397.2C43 407.3 86 427.7 128.8 433.8C171.7 440 214.3 432 257.2 436.7C300 441.3 343 458.7 385.8 468.3C428.7 478 471.3 480 514.2 483.3C557 486.7 600 491.3 642.8 482C685.7 472.7 728.3 449.3 771.2 440C814 430.7 857 435.3 878.5 437.7L900 440L900 601L878.5 601C857 601 814 601 771.2 601C728.3 601 685.7 601 642.8 601C600 601 557 601 514.2 601C471.3 601 428.7 601 385.8 601C343 601 300 601 257.2 601C214.3 601 171.7 601 128.8 601C86 601 43 601 21.5 601L0 601Z" fill="#0066FF" stroke-linecap="round" stroke-linejoin="miter"></path></svg>